# xmcd
#
# Track frame offsets:
#	150
#	12315
#	29702
#	46173
#	72111
#	85809
#	102007
#	111741
#	131482
#	147341
#
# Disc length: 2255 seconds
#
# Revision: 3
# Processed by: cddbd v1.5.2PL0 Copyright (c) Steve Scherf et al.
# Submitted via: EZCDAudioConverter 7.0.6.1
#
DISCID=8908cd0a
DTITLE=V/A - The Everlastin' Living Jesus Music Concert
DYEAR=1971
DGENRE=
TTITLE0=Love Song - Little Country Church
TTITLE1=Selah - In Jesus Name
TTITLE2=Blessed Hope - Something More
TTITLE3=Country Faith - Two Roads
TTITLE4=Children Of The Day - Holy, Holy, Holy
TTITLE5=Gentle Faith - The Shepherd
TTITLE6=Debby - Behold, I Stand At The Door And Knock
TTITLE7=The Way - If You Will Believe
TTITLE8=Love Song - Maranatha
TTITLE9=Children Of The Day - For Those Tears I Died
EXTD=
EXTT0=
EXTT1=
EXTT2=
EXTT3=
EXTT4=
EXTT5=
EXTT6=
EXTT7=
EXTT8=
EXTT9=
PLAYORDER=
